<svg width="70" height="42" viewBox="0 0 70 42" fill="none" xmlns="http://www.w3.org/2000/svg">
<path d="M15.3125 27.1875H59.0625C59.6427 27.1875 60.1991 27.3785 60.6093 27.7184C61.0195 28.0583 61.25 28.5193 61.25 29C61.25 29.4807 61.0195 29.9417 60.6093 30.2816C60.1991 30.6215 59.6427 30.8125 59.0625 30.8125H15.3125C14.7323 30.8125 14.1759 30.6215 13.7657 30.2816C13.3555 29.9417 13.125 29.4807 13.125 29C13.125 28.5193 13.3555 28.0583 13.7657 27.7184C14.1759 27.3785 14.7323 27.1875 15.3125 27.1875Z" fill="black"/>
<path d="M16.2181 29.0001L34.3613 44.0293C34.772 44.3697 35.0028 44.8313 35.0028 45.3126C35.0028 45.7939 34.772 46.2555 34.3613 46.5958C33.9505 46.9362 33.3934 47.1274 32.8125 47.1274C32.2316 47.1274 31.6745 46.9362 31.2638 46.5958L11.5763 30.2833C11.3725 30.115 11.2109 29.915 11.1006 29.6948C10.9904 29.4746 10.9336 29.2385 10.9336 29.0001C10.9336 28.7617 10.9904 28.5256 11.1006 28.3054C11.2109 28.0852 11.3725 27.8852 11.5763 27.7168L31.2638 11.4043C31.6745 11.064 32.2316 10.8728 32.8125 10.8728C33.3934 10.8728 33.9505 11.064 34.3613 11.4043C34.772 11.7447 35.0028 12.2063 35.0028 12.6876C35.0028 13.1689 34.772 13.6305 34.3613 13.9708L16.2181 29.0001Z" fill="black"/>
</svg>
