<?xml version="1.0" encoding="UTF-8"?>
<!-- Generator: visioncortex VTracer 0.6.3 -->
<svg version="1.1" xmlns="http://www.w3.org/2000/svg" width="250" height="250">
<path d="M0 0 C1.02 -0 2.04 -0.01 3.08 -0.01 C4.75 -0.01 4.75 -0.01 6.44 -0 C7.57 -0 8.7 -0.01 9.86 -0.01 C12.25 -0.01 14.64 -0.01 17.03 -0 C20.7 0 24.38 -0 28.05 -0.01 C30.37 -0.01 32.69 -0.01 35 -0 C36.11 -0.01 37.22 -0.01 38.36 -0.01 C39.38 -0.01 40.39 -0 41.44 0 C42.79 0 42.79 0 44.17 0 C46.22 0.13 46.22 0.13 47.22 1.13 C47.32 3.58 47.35 6.01 47.34 8.46 C47.34 9.63 47.34 9.63 47.34 10.82 C47.35 13.44 47.34 16.06 47.33 18.68 C47.33 20.56 47.33 22.43 47.33 24.3 C47.33 29.4 47.33 34.5 47.32 39.6 C47.32 44.92 47.32 50.24 47.31 55.56 C47.31 65.65 47.3 75.74 47.29 85.82 C47.28 97.3 47.28 108.78 47.27 120.26 C47.26 143.89 47.24 167.51 47.22 191.13 C48.21 191.13 49.2 191.13 50.22 191.13 C50.22 156.48 50.22 121.83 50.22 86.13 C53.06 85.18 54.82 85 57.77 85 C58.69 85 59.6 84.99 60.55 84.99 C61.54 84.99 62.52 84.99 63.54 85 C65.06 85 65.06 85 66.61 84.99 C68.76 84.99 70.9 84.99 73.05 85 C76.34 85 79.63 85 82.93 84.99 C85.01 84.99 87.09 84.99 89.17 85 C90.65 84.99 90.65 84.99 92.17 84.99 C93.54 85 93.54 85 94.93 85 C96.14 85 96.14 85 97.37 85 C99.22 85.13 99.22 85.13 100.22 86.13 C100.32 87.5 100.34 88.87 100.34 90.24 C100.34 91.56 100.34 91.56 100.35 92.92 C100.34 93.9 100.34 94.87 100.33 95.88 C100.33 96.91 100.33 97.93 100.33 98.99 C100.33 102.39 100.33 105.79 100.32 109.2 C100.32 111.55 100.32 113.9 100.31 116.25 C100.31 122.46 100.3 128.67 100.29 134.87 C100.28 141.2 100.27 147.53 100.27 153.85 C100.26 166.28 100.24 178.7 100.22 191.13 C103.19 191.13 106.16 191.13 109.22 191.13 C111.22 195.13 111.22 195.13 112.22 199.13 C33.02 199.13 -46.18 199.13 -127.78 199.13 C-128.11 197.81 -128.44 196.49 -128.78 195.13 C-126.8 194.14 -126.8 194.14 -124.78 193.13 C-124.78 192.47 -124.78 191.81 -124.78 191.13 C-121.81 191.13 -118.84 191.13 -115.78 191.13 C-115.78 156.48 -115.78 121.83 -115.78 86.13 C-112.94 85.18 -111.18 85 -108.23 85 C-107.31 85 -106.4 84.99 -105.45 84.99 C-104.46 84.99 -103.48 84.99 -102.46 85 C-100.94 85 -100.94 85 -99.39 84.99 C-97.24 84.99 -95.1 84.99 -92.95 85 C-89.66 85 -86.37 85 -83.07 84.99 C-80.99 84.99 -78.91 84.99 -76.83 85 C-75.35 84.99 -75.35 84.99 -73.83 84.99 C-72.46 85 -72.46 85 -71.07 85 C-69.86 85 -69.86 85 -68.63 85 C-66.78 85.13 -66.78 85.13 -65.78 86.13 C-65.68 87.5 -65.66 88.87 -65.66 90.24 C-65.66 91.12 -65.66 92.01 -65.65 92.92 C-65.66 94.38 -65.66 94.38 -65.67 95.88 C-65.67 96.91 -65.67 97.93 -65.67 98.99 C-65.67 102.39 -65.67 105.79 -65.68 109.2 C-65.68 111.55 -65.68 113.9 -65.69 116.25 C-65.69 122.46 -65.7 128.67 -65.71 134.87 C-65.72 141.2 -65.73 147.53 -65.73 153.85 C-65.74 166.28 -65.76 178.7 -65.78 191.13 C-64.13 191.13 -62.48 191.13 -60.78 191.13 C-60.78 147.24 -60.78 103.35 -60.78 58.13 C-57.89 57.16 -56.06 57 -53.05 57 C-52.09 57 -51.13 56.99 -50.15 56.99 C-48.6 56.99 -48.6 56.99 -47.02 57 C-45.96 57 -44.9 56.99 -43.81 56.99 C-41.58 56.99 -39.34 56.99 -37.1 57 C-33.66 57 -30.22 57 -26.78 56.99 C-24.61 56.99 -22.44 56.99 -20.27 57 C-19.24 56.99 -18.2 56.99 -17.13 56.99 C-16.18 56.99 -15.23 57 -14.25 57 C-13.41 57 -12.57 57 -11.7 57 C-9.78 57.13 -9.78 57.13 -8.78 58.13 C-8.68 59.85 -8.66 61.58 -8.66 63.3 C-8.66 64.98 -8.66 64.98 -8.65 66.69 C-8.66 68.55 -8.66 68.55 -8.67 70.45 C-8.67 71.75 -8.67 73.05 -8.67 74.38 C-8.67 77.95 -8.67 81.52 -8.68 85.09 C-8.68 88.81 -8.68 92.54 -8.69 96.26 C-8.69 103.32 -8.7 110.38 -8.71 117.44 C-8.72 125.47 -8.72 133.5 -8.73 141.54 C-8.74 158.07 -8.76 174.6 -8.78 191.13 C-7.79 191.13 -6.8 191.13 -5.78 191.13 C-5.78 190.15 -5.78 189.17 -5.78 188.16 C-5.8 164.4 -5.82 140.63 -5.83 116.86 C-5.84 105.37 -5.84 93.88 -5.85 82.38 C-5.86 72.37 -5.87 62.35 -5.87 52.34 C-5.87 47.03 -5.88 41.73 -5.89 36.42 C-5.89 31.43 -5.89 26.45 -5.89 21.46 C-5.89 19.62 -5.89 17.79 -5.9 15.95 C-5.9 13.45 -5.9 10.96 -5.9 8.46 C-5.9 7.73 -5.91 6.99 -5.91 6.23 C-5.89 0.48 -5.69 0.01 0 0 Z M-4.78 2.13 C-4.78 64.5 -4.78 126.87 -4.78 191.13 C-4.45 191.13 -4.12 191.13 -3.78 191.13 C-3.78 128.76 -3.78 66.39 -3.78 2.13 C-4.11 2.13 -4.44 2.13 -4.78 2.13 Z M45.22 2.13 C45.22 64.5 45.22 126.87 45.22 191.13 C45.55 191.13 45.88 191.13 46.22 191.13 C46.22 128.76 46.22 66.39 46.22 2.13 C45.89 2.13 45.56 2.13 45.22 2.13 Z M-10.78 59.13 C-10.78 102.69 -10.78 146.25 -10.78 191.13 C-10.45 191.13 -10.12 191.13 -9.78 191.13 C-9.78 147.57 -9.78 104.01 -9.78 59.13 C-10.11 59.13 -10.44 59.13 -10.78 59.13 Z M-65.78 192.13 C-65.78 192.46 -65.78 192.79 -65.78 193.13 C-63.47 193.13 -61.16 193.13 -58.78 193.13 C-58.78 192.8 -58.78 192.47 -58.78 192.13 C-61.09 192.13 -63.4 192.13 -65.78 192.13 Z M-10.78 192.13 C-10.78 192.46 -10.78 192.79 -10.78 193.13 C-8.47 193.13 -6.16 193.13 -3.78 193.13 C-3.78 192.8 -3.78 192.47 -3.78 192.13 C-6.09 192.13 -8.4 192.13 -10.78 192.13 Z M45.22 192.13 C45.22 192.46 45.22 192.79 45.22 193.13 C47.53 193.13 49.84 193.13 52.22 193.13 C52.22 192.8 52.22 192.47 52.22 192.13 C49.91 192.13 47.6 192.13 45.22 192.13 Z " fill="#1E458F" transform="translate(132.779296875,21.87060546875)"/>
<path d="M0 0 C77.88 0 155.76 0 236 0 C236 0.33 236 0.66 236 1 C158.12 1 80.24 1 0 1 C0 0.67 0 0.34 0 0 Z " fill="#003E7F" transform="translate(7,222)"/>
<path d="M0 0 C15.51 0 31.02 0 47 0 C47 0.33 47 0.66 47 1 C31.49 1 15.98 1 0 1 C0 0.67 0 0.34 0 0 Z " fill="#000316" transform="translate(130,20)"/>
<path d="M0 0 C15.18 0 30.36 0 46 0 C46 0.33 46 0.66 46 1 C30.82 1 15.64 1 0 1 C0 0.67 0 0.34 0 0 Z " fill="#013E7E" transform="translate(186,105)"/>
<path d="M0 0 C15.18 0 30.36 0 46 0 C46 0.33 46 0.66 46 1 C30.82 1 15.64 1 0 1 C0 0.67 0 0.34 0 0 Z " fill="#013E7F" transform="translate(20,105)"/>
<path d="M0 0 C15.18 0 30.36 0 46 0 C46 0.33 46 0.66 46 1 C30.82 1 15.64 1 0 1 C0 0.67 0 0.34 0 0 Z " fill="#000AF4" transform="translate(75,77)"/>
<path d="" fill="#003F7F" transform="translate(0,0)"/>
<path d="" fill="#002A55" transform="translate(0,0)"/>
<path d="" fill="#002A55" transform="translate(0,0)"/>
<path d="" fill="#00007F" transform="translate(0,0)"/>
<path d="" fill="#0000FF" transform="translate(0,0)"/>
<path d="" fill="#007F7F" transform="translate(0,0)"/>
<path d="" fill="#007F7F" transform="translate(0,0)"/>
<path d="" fill="#000000" transform="translate(0,0)"/>
<path d="" fill="#000000" transform="translate(0,0)"/>
<path d="" fill="#000000" transform="translate(0,0)"/>
<path d="" fill="#0000FF" transform="translate(0,0)"/>
<path d="" fill="#0000FF" transform="translate(0,0)"/>
<path d="" fill="#000000" transform="translate(0,0)"/>
<path d="" fill="#000000" transform="translate(0,0)"/>
</svg>
