<svg width="24" height="25" viewBox="0 0 24 25" fill="none" xmlns="http://www.w3.org/2000/svg">
<path d="M17 22.4028C15.8933 22.4028 15 21.2361 15 19.7917C15 18.3611 15.8933 17.1944 17 17.1944C18.1067 17.1944 19 18.3611 19 19.7917C19 21.2361 18.1067 22.4028 17 22.4028ZM12 11.4583C10.3467 11.4583 9.00001 10.2917 9.00001 8.86111C9.00001 7.41667 10.3467 6.25 12 6.25C13.6533 6.25 15 7.41667 15 8.86111C15 10.2917 13.6533 11.4583 12 11.4583ZM7.00001 22.4028C5.89335 22.4028 5.00001 21.2361 5.00001 19.7917C5.00001 18.3611 5.89335 17.1944 7.00001 17.1944C8.10668 17.1944 9.00001 18.3611 9.00001 19.7917C9.00001 21.2361 8.10668 22.4028 7.00001 22.4028ZM12 7.29167C12.5467 7.29167 13 7.76389 13 8.33333C13 8.90278 12.5467 9.375 12 9.375C11.4533 9.375 11 8.90278 11 8.33333C11 7.76389 11.4533 7.29167 12 7.29167ZM21 12.5C20.5733 12.5 20.16 12.5972 19.7867 12.7778C19.1467 11.9306 18.28 11.2083 17.24 10.6528C18 9.54167 18.4533 8.19444 18.4533 6.73611V6.65278C19.9067 6.33333 21 4.98611 21 3.36111C21 1.51389 19.5467 0 17.7733 0C16.8533 0 16 0.402778 15.44 1.04167C14.4115 0.361369 13.2183 0.000102652 12 0.000102652C10.7817 0.000102652 9.58851 0.361369 8.56001 1.04167C8.00001 0.402778 7.14668 0 6.22668 0C4.45335 0 3.00002 1.51389 3.00002 3.36111C3.00002 4.97222 4.09335 6.31944 5.53335 6.65278V6.73611C5.53335 8.19444 6.00001 9.55556 6.74668 10.6528C5.72001 11.2083 4.85335 11.9306 4.21335 12.7778C3.7577 12.564 3.25783 12.4727 2.75954 12.5123C2.26124 12.5519 1.78045 12.7211 1.3612 13.0044C0.941949 13.2877 0.597649 13.6761 0.359838 14.1339C0.122028 14.5917 -0.00169023 15.1044 1.74411e-05 15.625C1.74411e-05 17.3611 1.33335 18.75 3.00002 18.75H3.08001C3.02668 19.0833 3.00002 19.4444 3.00002 19.7917C3.00002 22.6667 4.78668 25 7.00001 25C8.34668 25 9.53334 24.125 10.2667 22.7917C10.8267 22.875 11.4 22.9167 12 22.9167C12.6 22.9167 13.1733 22.875 13.7333 22.7917C14.4667 24.125 15.6533 25 17 25C19.2133 25 21 22.6667 21 19.7917C21 19.4444 20.9733 19.0833 20.92 18.75H21C22.6667 18.75 24 17.3611 24 15.625C24 13.8889 22.6667 12.5 21 12.5Z" fill="#1F4590"/>
</svg>
