<svg width="137" height="43" viewBox="0 0 137 43" fill="none" xmlns="http://www.w3.org/2000/svg">
<path d="M22.515 27.545V32H0.6V0.0499983H22.11V4.505H5.64V13.595H19.905V17.78H5.64V27.545H22.515ZM27.3669 37.535C27.8169 37.595 28.2519 37.655 28.6719 37.715C29.1219 37.805 29.4819 37.85 29.7519 37.85C30.2619 37.85 30.6969 37.685 31.0569 37.355C31.4469 37.055 31.8369 36.485 32.2269 35.645C32.6169 34.805 33.0969 33.59 33.6669 32L23.9919 8.465H29.1669L36.3669 26.96L42.7569 8.465H47.5269L36.8619 37.445C36.5319 38.315 36.0519 39.11 35.4219 39.83C34.7919 40.58 34.0119 41.165 33.0819 41.585C32.1519 42.005 31.0569 42.215 29.7969 42.215C29.4369 42.215 29.0619 42.185 28.6719 42.125C28.2819 42.065 27.8469 41.975 27.3669 41.855V37.535ZM61.0403 32.45C59.2103 32.45 57.5453 32.135 56.0453 31.505C54.5753 30.845 53.3003 29.96 52.2203 28.85C51.1403 27.71 50.3003 26.42 49.7003 24.98C49.1303 23.51 48.8453 21.95 48.8453 20.3C48.8453 18.08 49.3553 16.055 50.3753 14.225C51.3953 12.365 52.8203 10.88 54.6503 9.77C56.4803 8.63 58.6253 8.06 61.0853 8.06C63.5453 8.06 65.6603 8.63 67.4303 9.77C69.2303 10.88 70.6253 12.35 71.6153 14.18C72.6053 16.01 73.1003 17.975 73.1003 20.075C73.1003 20.435 73.0853 20.78 73.0553 21.11C73.0253 21.41 72.9953 21.665 72.9653 21.875H54.1103C54.2003 23.255 54.5753 24.47 55.2353 25.52C55.9253 26.54 56.7953 27.35 57.8453 27.95C58.8953 28.52 60.0203 28.805 61.2203 28.805C62.5403 28.805 63.7853 28.475 64.9553 27.815C66.1553 27.155 66.9653 26.285 67.3853 25.205L71.6153 26.42C71.1053 27.56 70.3253 28.595 69.2753 29.525C68.2553 30.425 67.0403 31.145 65.6303 31.685C64.2203 32.195 62.6903 32.45 61.0403 32.45ZM53.9753 18.59H68.1953C68.1053 17.24 67.7153 16.055 67.0253 15.035C66.3653 13.985 65.5103 13.175 64.4603 12.605C63.4403 12.005 62.3003 11.705 61.0403 11.705C59.8103 11.705 58.6703 12.005 57.6203 12.605C56.6003 13.175 55.7603 13.985 55.1003 15.035C54.4403 16.055 54.0653 17.24 53.9753 18.59Z" fill="#1F4590"/>
<path d="M87.068 32L82.028 24.77L79.448 27.23V32H76.148V10.1H79.448V23.9L86.708 16.34H90.248L84.158 22.91L90.578 32H87.068ZM92.5835 32V16.31H95.8835V32H92.5835ZM92.5835 13.73V10.1H95.8835V13.73H92.5835ZM98.8591 24.17C98.8591 22.67 99.1591 21.31 99.7591 20.09C100.379 18.85 101.219 17.87 102.279 17.15C103.339 16.41 104.559 16.04 105.939 16.04C107.139 16.04 108.219 16.35 109.179 16.97C110.159 17.59 110.919 18.36 111.459 19.28V10.1H114.759V28.28C114.759 28.66 114.829 28.93 114.969 29.09C115.109 29.25 115.339 29.34 115.659 29.36V32C115.039 32.1 114.559 32.15 114.219 32.15C113.599 32.15 113.069 31.97 112.629 31.61C112.209 31.25 111.989 30.82 111.969 30.32L111.939 29.15C111.339 30.15 110.529 30.93 109.509 31.49C108.489 32.03 107.429 32.3 106.329 32.3C105.249 32.3 104.249 32.09 103.329 31.67C102.429 31.25 101.639 30.66 100.959 29.9C100.299 29.14 99.7791 28.27 99.3991 27.29C99.0391 26.31 98.8591 25.27 98.8591 24.17ZM111.459 26.36V22.25C111.239 21.61 110.879 21.04 110.379 20.54C109.899 20.02 109.349 19.61 108.729 19.31C108.129 19.01 107.529 18.86 106.929 18.86C106.229 18.86 105.589 19.01 105.009 19.31C104.449 19.61 103.959 20.01 103.539 20.51C103.139 21.01 102.829 21.58 102.609 22.22C102.389 22.86 102.279 23.53 102.279 24.23C102.279 24.95 102.399 25.63 102.639 26.27C102.879 26.89 103.219 27.45 103.659 27.95C104.119 28.43 104.639 28.81 105.219 29.09C105.819 29.35 106.469 29.48 107.169 29.48C107.609 29.48 108.049 29.4 108.489 29.24C108.949 29.08 109.379 28.86 109.779 28.58C110.199 28.3 110.549 27.97 110.829 27.59C111.129 27.21 111.339 26.8 111.459 26.36ZM124.531 32.3C123.211 32.3 121.961 32.09 120.781 31.67C119.601 31.23 118.591 30.58 117.751 29.72L118.981 27.5C119.881 28.3 120.781 28.88 121.681 29.24C122.601 29.6 123.511 29.78 124.411 29.78C125.331 29.78 126.081 29.61 126.661 29.27C127.241 28.91 127.531 28.39 127.531 27.71C127.531 27.21 127.381 26.84 127.081 26.6C126.781 26.36 126.341 26.15 125.761 25.97C125.201 25.79 124.521 25.59 123.721 25.37C122.601 25.03 121.661 24.68 120.901 24.32C120.141 23.94 119.571 23.48 119.191 22.94C118.811 22.4 118.621 21.71 118.621 20.87C118.621 19.85 118.881 18.98 119.401 18.26C119.921 17.54 120.641 16.99 121.561 16.61C122.501 16.23 123.581 16.04 124.801 16.04C125.941 16.04 126.991 16.22 127.951 16.58C128.931 16.92 129.791 17.46 130.531 18.2L129.121 20.39C128.421 19.75 127.701 19.28 126.961 18.98C126.241 18.68 125.461 18.53 124.621 18.53C124.141 18.53 123.681 18.59 123.241 18.71C122.801 18.81 122.431 19.01 122.131 19.31C121.851 19.59 121.711 19.99 121.711 20.51C121.711 20.93 121.831 21.27 122.071 21.53C122.311 21.79 122.671 22.01 123.151 22.19C123.631 22.37 124.221 22.57 124.921 22.79C126.141 23.15 127.181 23.51 128.041 23.87C128.901 24.21 129.561 24.66 130.021 25.22C130.501 25.76 130.741 26.51 130.741 27.47C130.741 28.99 130.171 30.18 129.031 31.04C127.911 31.88 126.411 32.3 124.531 32.3Z" fill="#FFA451"/>
<path d="M133.537 32V28.16H136.267V32H133.537Z" fill="#F0B666"/>
</svg>
