<svg width="250" height="250" viewBox="0 0 250 250" fill="none" xmlns="http://www.w3.org/2000/svg">
<path d="M167.969 76.1719V64.4531C167.969 63.3789 167.09 62.5 166.016 62.5H72.2656C71.1914 62.5 70.3125 63.3789 70.3125 64.4531V76.1719C70.3125 77.2461 71.1914 78.125 72.2656 78.125H166.016C167.09 78.125 167.969 77.2461 167.969 76.1719ZM72.2656 97.6562C71.1914 97.6562 70.3125 98.5352 70.3125 99.6094V111.328C70.3125 112.402 71.1914 113.281 72.2656 113.281H117.188C118.262 113.281 119.141 112.402 119.141 111.328V99.6094C119.141 98.5352 118.262 97.6562 117.188 97.6562H72.2656ZM164.062 125.977C134.937 125.977 111.328 149.585 111.328 178.711C111.328 207.837 134.937 231.445 164.062 231.445C193.188 231.445 216.797 207.837 216.797 178.711C216.797 149.585 193.188 125.977 164.062 125.977ZM190.308 204.956C183.301 211.963 173.975 215.82 164.062 215.82C154.15 215.82 144.824 211.963 137.817 204.956C130.811 197.949 126.953 188.623 126.953 178.711C126.953 168.799 130.811 159.473 137.817 152.466C144.824 145.459 154.15 141.602 164.062 141.602C173.975 141.602 183.301 145.459 190.308 152.466C197.314 159.473 201.172 168.799 201.172 178.711C201.172 188.623 197.314 197.949 190.308 204.956ZM185.791 160.156H174.976C174.341 160.156 173.755 160.449 173.389 160.962L157.886 182.397L152.246 174.609C152.065 174.358 151.827 174.153 151.551 174.013C151.275 173.873 150.969 173.801 150.659 173.804H139.893C138.306 173.804 137.378 175.61 138.306 176.904L156.323 201.831C157.104 202.905 158.691 202.905 159.473 201.831L187.354 163.257C188.306 161.963 187.378 160.156 185.791 160.156ZM107.422 208.008H50.7812V36.1328H187.5V120.117C187.5 121.191 188.379 122.07 189.453 122.07H203.125C204.199 122.07 205.078 121.191 205.078 120.117V26.3672C205.078 22.0459 201.587 18.5547 197.266 18.5547H41.0156C36.6943 18.5547 33.2031 22.0459 33.2031 26.3672V217.773C33.2031 222.095 36.6943 225.586 41.0156 225.586H107.422C108.496 225.586 109.375 224.707 109.375 223.633V209.961C109.375 208.887 108.496 208.008 107.422 208.008Z" fill="#1F4590"/>
</svg>
