<svg width="223" height="194" viewBox="0 0 223 194" fill="none" xmlns="http://www.w3.org/2000/svg">
<path d="M127.429 0C102.081 0 77.7725 10.2196 59.8494 28.4106C41.9262 46.6017 31.8571 71.274 31.8571 97H0L41.3081 138.926L42.0514 140.434L84.9524 97H53.0952C53.0952 55.29 86.3329 21.5555 127.429 21.5555C168.524 21.5555 201.762 55.29 201.762 97C201.762 138.71 168.524 172.444 127.429 172.444C106.934 172.444 88.3505 163.93 74.9705 150.242L59.8914 165.547C68.7415 174.579 79.2658 181.743 90.8573 186.626C102.449 191.51 114.878 194.016 127.429 194C152.776 194 177.085 183.78 195.008 165.589C212.931 147.398 223 122.726 223 97C223 71.274 212.931 46.6017 195.008 28.4106C177.085 10.2196 152.776 3.83347e-07 127.429 0ZM116.81 53.8889V107.778L161.94 134.938L170.117 121.142L132.738 98.6166V53.8889H116.81Z" fill="#1F4590"/>
</svg>
