<svg width="74" height="71" viewBox="0 0 74 71" fill="none" xmlns="http://www.w3.org/2000/svg">
<ellipse cx="37" cy="35.5" rx="37" ry="35.5" fill="#1F4590"/>
<path fill-rule="evenodd" clip-rule="evenodd" d="M29.1667 26.3333C29.1667 24.3884 29.9393 22.5231 31.3146 21.1479C32.6898 19.7726 34.5551 19 36.5 19C38.4449 19 40.3102 19.7726 41.6854 21.1479C43.0607 22.5231 43.8333 24.3884 43.8333 26.3333C43.8333 28.2783 43.0607 30.1435 41.6854 31.5188C40.3102 32.8941 38.4449 33.6667 36.5 33.6667C34.5551 33.6667 32.6898 32.8941 31.3146 31.5188C29.9393 30.1435 29.1667 28.2783 29.1667 26.3333ZM29.1667 37.3333C26.7355 37.3333 24.4039 38.2991 22.6849 40.0182C20.9658 41.7373 20 44.0688 20 46.5C20 47.9587 20.5795 49.3576 21.6109 50.3891C22.6424 51.4205 24.0413 52 25.5 52H47.5C48.9587 52 50.3576 51.4205 51.3891 50.3891C52.4205 49.3576 53 47.9587 53 46.5C53 44.0688 52.0342 41.7373 50.3151 40.0182C48.5961 38.2991 46.2645 37.3333 43.8333 37.3333H29.1667Z" fill="white"/>
</svg>
