<?xml version="1.0" encoding="UTF-8"?>
<svg xmlns="http://www.w3.org/2000/svg" xmlns:xlink="http://www.w3.org/1999/xlink" width="35px" height="35px" viewBox="0 0 35 35" version="1.1">
<g id="surface1">
<path style=" stroke:none;fill-rule:nonzero;fill:rgb(11.764706%,27.058824%,56.078431%);fill-opacity:1;" d="M 18.589844 3.0625 C 18.730469 3.0625 18.875 3.058594 19.019531 3.058594 C 19.253906 3.058594 19.253906 3.058594 19.492188 3.0625 C 19.648438 3.0625 19.808594 3.058594 19.96875 3.058594 C 20.304688 3.058594 20.640625 3.058594 20.972656 3.0625 C 21.488281 3.0625 22.003906 3.0625 22.515625 3.058594 C 22.839844 3.058594 23.164062 3.058594 23.488281 3.0625 C 23.644531 3.058594 23.800781 3.058594 23.960938 3.058594 C 24.101562 3.058594 24.242188 3.0625 24.390625 3.0625 C 24.578125 3.0625 24.578125 3.0625 24.773438 3.0625 C 25.058594 3.082031 25.058594 3.082031 25.199219 3.21875 C 25.214844 3.5625 25.21875 3.902344 25.214844 4.246094 C 25.214844 4.410156 25.214844 4.410156 25.214844 4.578125 C 25.21875 4.945312 25.214844 5.308594 25.214844 5.675781 C 25.214844 5.941406 25.214844 6.203125 25.214844 6.464844 C 25.214844 7.179688 25.214844 7.890625 25.214844 8.605469 C 25.214844 9.351562 25.214844 10.09375 25.210938 10.839844 C 25.210938 12.253906 25.210938 13.664062 25.210938 15.078125 C 25.207031 16.683594 25.207031 18.292969 25.207031 19.898438 C 25.207031 23.207031 25.203125 26.511719 25.199219 29.820312 C 25.339844 29.820312 25.476562 29.820312 25.621094 29.820312 C 25.621094 24.96875 25.621094 20.117188 25.621094 15.121094 C 26.015625 14.988281 26.265625 14.960938 26.675781 14.960938 C 26.804688 14.960938 26.933594 14.960938 27.066406 14.960938 C 27.203125 14.960938 27.34375 14.960938 27.484375 14.960938 C 27.699219 14.960938 27.699219 14.960938 27.914062 14.960938 C 28.214844 14.960938 28.515625 14.960938 28.816406 14.960938 C 29.277344 14.960938 29.738281 14.960938 30.199219 14.960938 C 30.492188 14.960938 30.78125 14.960938 31.074219 14.960938 C 31.28125 14.960938 31.28125 14.960938 31.492188 14.960938 C 31.683594 14.960938 31.683594 14.960938 31.878906 14.960938 C 32.046875 14.960938 32.046875 14.960938 32.222656 14.960938 C 32.480469 14.980469 32.480469 14.980469 32.621094 15.121094 C 32.632812 15.3125 32.636719 15.503906 32.636719 15.695312 C 32.636719 15.878906 32.636719 15.878906 32.636719 16.070312 C 32.636719 16.207031 32.636719 16.34375 32.636719 16.484375 C 32.636719 16.628906 32.636719 16.773438 32.636719 16.921875 C 32.636719 17.398438 32.636719 17.871094 32.632812 18.351562 C 32.632812 18.679688 32.632812 19.007812 32.632812 19.335938 C 32.632812 20.207031 32.632812 21.074219 32.628906 21.945312 C 32.628906 22.828125 32.625 23.714844 32.625 24.601562 C 32.625 26.339844 32.621094 28.078125 32.621094 29.820312 C 33.035156 29.820312 33.453125 29.820312 33.878906 29.820312 C 34.160156 30.378906 34.160156 30.378906 34.300781 30.941406 C 23.210938 30.941406 12.125 30.941406 0.699219 30.941406 C 0.652344 30.753906 0.609375 30.570312 0.558594 30.378906 C 0.835938 30.242188 0.835938 30.242188 1.121094 30.101562 C 1.121094 30.007812 1.121094 29.914062 1.121094 29.820312 C 1.535156 29.820312 1.953125 29.820312 2.378906 29.820312 C 2.378906 24.96875 2.378906 20.117188 2.378906 15.121094 C 2.777344 14.988281 3.023438 14.960938 3.4375 14.960938 C 3.566406 14.960938 3.691406 14.960938 3.824219 14.960938 C 3.964844 14.960938 4.101562 14.960938 4.246094 14.960938 C 4.457031 14.960938 4.457031 14.960938 4.675781 14.960938 C 4.976562 14.960938 5.273438 14.960938 5.574219 14.960938 C 6.035156 14.960938 6.496094 14.960938 6.960938 14.960938 C 7.25 14.960938 7.542969 14.960938 7.832031 14.960938 C 8.039062 14.960938 8.039062 14.960938 8.253906 14.960938 C 8.445312 14.960938 8.445312 14.960938 8.640625 14.960938 C 8.808594 14.960938 8.808594 14.960938 8.980469 14.960938 C 9.238281 14.980469 9.238281 14.980469 9.378906 15.121094 C 9.394531 15.3125 9.398438 15.503906 9.398438 15.695312 C 9.398438 15.820312 9.398438 15.941406 9.398438 16.070312 C 9.398438 16.273438 9.398438 16.273438 9.394531 16.484375 C 9.394531 16.628906 9.394531 16.773438 9.394531 16.921875 C 9.394531 17.398438 9.394531 17.871094 9.394531 18.351562 C 9.394531 18.679688 9.394531 19.007812 9.390625 19.335938 C 9.390625 20.207031 9.390625 21.074219 9.390625 21.945312 C 9.386719 22.828125 9.386719 23.714844 9.386719 24.601562 C 9.386719 26.339844 9.382812 28.078125 9.378906 29.820312 C 9.609375 29.820312 9.84375 29.820312 10.078125 29.820312 C 10.078125 23.675781 10.078125 17.53125 10.078125 11.199219 C 10.484375 11.0625 10.742188 11.042969 11.160156 11.042969 C 11.296875 11.042969 11.429688 11.039062 11.566406 11.039062 C 11.785156 11.039062 11.785156 11.039062 12.007812 11.042969 C 12.15625 11.042969 12.304688 11.039062 12.457031 11.039062 C 12.769531 11.039062 13.082031 11.039062 13.394531 11.042969 C 13.875 11.042969 14.359375 11.042969 14.839844 11.039062 C 15.144531 11.039062 15.449219 11.039062 15.75 11.042969 C 15.894531 11.039062 16.042969 11.039062 16.191406 11.039062 C 16.324219 11.039062 16.457031 11.042969 16.59375 11.042969 C 16.710938 11.042969 16.828125 11.042969 16.949219 11.042969 C 17.21875 11.058594 17.21875 11.058594 17.359375 11.199219 C 17.375 11.441406 17.375 11.683594 17.375 11.925781 C 17.375 12.160156 17.375 12.160156 17.378906 12.398438 C 17.375 12.660156 17.375 12.660156 17.375 12.925781 C 17.375 13.105469 17.375 13.289062 17.375 13.476562 C 17.375 13.976562 17.375 14.476562 17.375 14.972656 C 17.375 15.496094 17.375 16.015625 17.371094 16.539062 C 17.371094 17.527344 17.371094 18.515625 17.371094 19.503906 C 17.367188 20.628906 17.367188 21.75 17.367188 22.878906 C 17.367188 25.191406 17.363281 27.507812 17.359375 29.820312 C 17.5 29.820312 17.636719 29.820312 17.78125 29.820312 C 17.78125 29.683594 17.78125 29.546875 17.78125 29.402344 C 17.777344 26.078125 17.773438 22.75 17.773438 19.421875 C 17.773438 17.8125 17.773438 16.207031 17.769531 14.59375 C 17.769531 13.195312 17.765625 11.789062 17.765625 10.390625 C 17.765625 9.644531 17.765625 8.902344 17.765625 8.160156 C 17.765625 7.460938 17.765625 6.765625 17.765625 6.066406 C 17.765625 5.808594 17.765625 5.550781 17.761719 5.292969 C 17.761719 4.945312 17.761719 4.597656 17.761719 4.246094 C 17.761719 4.144531 17.761719 4.039062 17.761719 3.933594 C 17.765625 3.128906 17.792969 3.0625 18.589844 3.0625 Z M 17.917969 3.359375 C 17.917969 12.09375 17.917969 20.824219 17.917969 29.820312 C 17.964844 29.820312 18.011719 29.820312 18.058594 29.820312 C 18.058594 21.089844 18.058594 12.355469 18.058594 3.359375 C 18.015625 3.359375 17.96875 3.359375 17.917969 3.359375 Z M 24.917969 3.359375 C 24.917969 12.09375 24.917969 20.824219 24.917969 29.820312 C 24.964844 29.820312 25.011719 29.820312 25.058594 29.820312 C 25.058594 21.089844 25.058594 12.355469 25.058594 3.359375 C 25.015625 3.359375 24.96875 3.359375 24.917969 3.359375 Z M 17.078125 11.339844 C 17.078125 17.4375 17.078125 23.535156 17.078125 29.820312 C 17.125 29.820312 17.171875 29.820312 17.21875 29.820312 C 17.21875 23.722656 17.21875 17.625 17.21875 11.339844 C 17.171875 11.339844 17.128906 11.339844 17.078125 11.339844 Z M 9.378906 29.960938 C 9.378906 30.007812 9.378906 30.050781 9.378906 30.101562 C 9.703125 30.101562 10.027344 30.101562 10.359375 30.101562 C 10.359375 30.054688 10.359375 30.007812 10.359375 29.960938 C 10.035156 29.960938 9.714844 29.960938 9.378906 29.960938 Z M 17.078125 29.960938 C 17.078125 30.007812 17.078125 30.050781 17.078125 30.101562 C 17.402344 30.101562 17.726562 30.101562 18.058594 30.101562 C 18.058594 30.054688 18.058594 30.007812 18.058594 29.960938 C 17.738281 29.960938 17.414062 29.960938 17.078125 29.960938 Z M 24.917969 29.960938 C 24.917969 30.007812 24.917969 30.050781 24.917969 30.101562 C 25.242188 30.101562 25.566406 30.101562 25.898438 30.101562 C 25.898438 30.054688 25.898438 30.007812 25.898438 29.960938 C 25.578125 29.960938 25.253906 29.960938 24.917969 29.960938 Z M 24.917969 29.960938 "/>
<path style=" stroke:none;fill-rule:nonzero;fill:rgb(0%,24.313725%,49.803922%);fill-opacity:1;" d="M 0.980469 31.078125 C 11.882812 31.078125 22.785156 31.078125 34.019531 31.078125 C 34.019531 31.125 34.019531 31.171875 34.019531 31.21875 C 23.117188 31.21875 12.214844 31.21875 0.980469 31.21875 C 0.980469 31.171875 0.980469 31.128906 0.980469 31.078125 Z M 0.980469 31.078125 "/>
<path style=" stroke:none;fill-rule:nonzero;fill:rgb(0%,1.176471%,8.627451%);fill-opacity:1;" d="M 18.199219 2.800781 C 20.371094 2.800781 22.542969 2.800781 24.78125 2.800781 C 24.78125 2.847656 24.78125 2.890625 24.78125 2.941406 C 22.609375 2.941406 20.4375 2.941406 18.199219 2.941406 C 18.199219 2.894531 18.199219 2.847656 18.199219 2.800781 Z M 18.199219 2.800781 "/>
<path style=" stroke:none;fill-rule:nonzero;fill:rgb(0.392157%,24.313725%,49.411765%);fill-opacity:1;" d="M 26.039062 14.699219 C 28.164062 14.699219 30.289062 14.699219 32.480469 14.699219 C 32.480469 14.746094 32.480469 14.792969 32.480469 14.839844 C 30.355469 14.839844 28.230469 14.839844 26.039062 14.839844 C 26.039062 14.792969 26.039062 14.746094 26.039062 14.699219 Z M 26.039062 14.699219 "/>
<path style=" stroke:none;fill-rule:nonzero;fill:rgb(0.392157%,24.313725%,49.803922%);fill-opacity:1;" d="M 2.800781 14.699219 C 4.925781 14.699219 7.050781 14.699219 9.238281 14.699219 C 9.238281 14.746094 9.238281 14.792969 9.238281 14.839844 C 7.113281 14.839844 4.988281 14.839844 2.800781 14.839844 C 2.800781 14.792969 2.800781 14.746094 2.800781 14.699219 Z M 2.800781 14.699219 "/>
<path style=" stroke:none;fill-rule:nonzero;fill:rgb(0%,3.921569%,95.686275%);fill-opacity:1;" d="M 10.5 10.78125 C 12.625 10.78125 14.75 10.78125 16.941406 10.78125 C 16.941406 10.828125 16.941406 10.871094 16.941406 10.921875 C 14.816406 10.921875 12.691406 10.921875 10.5 10.921875 C 10.5 10.875 10.5 10.828125 10.5 10.78125 Z M 10.5 10.78125 "/>
</g>
</svg>
