<svg width="34" height="34" viewBox="0 0 34 34" fill="none" xmlns="http://www.w3.org/2000/svg">
<path fill-rule="evenodd" clip-rule="evenodd" d="M17 5.66671C15.0177 5.66634 13.0701 6.1859 11.3513 7.17351C9.63263 8.16113 8.20302 9.58226 7.20518 11.2951C6.20735 13.0079 5.67621 14.9524 5.66477 16.9346C5.65333 18.9169 6.162 20.8674 7.14 22.5916C7.80103 21.7325 8.65077 21.037 9.62353 20.5587C10.5963 20.0804 11.666 19.8322 12.75 19.8334H21.25C22.334 19.8322 23.4037 20.0804 24.3765 20.5587C25.3492 21.037 26.199 21.7325 26.86 22.5916C27.838 20.8674 28.3467 18.9169 28.3352 16.9346C28.3238 14.9524 27.7926 13.0079 26.7948 11.2951C25.797 9.58226 24.3674 8.16113 22.6486 7.17351C20.9299 6.1859 18.9823 5.66634 17 5.66671ZM28.2526 25.6077C30.1467 23.1384 31.1712 20.1121 31.1667 17C31.1667 9.17579 24.8242 2.83337 17 2.83337C9.17575 2.83337 2.83333 9.17579 2.83333 17C2.82865 20.1121 3.8532 23.1385 5.74741 25.6077L5.74033 25.6332L6.24325 26.2183C7.57192 27.7717 9.22162 29.0185 11.0787 29.8728C12.9357 30.7271 14.9559 31.1685 17 31.1667C19.872 31.172 22.6771 30.2996 25.0396 28.6663C26.0467 27.9704 26.96 27.1477 27.7567 26.2183L28.2597 25.6332L28.2526 25.6077ZM17 8.50004C15.8728 8.50004 14.7918 8.94781 13.9948 9.74484C13.1978 10.5419 12.75 11.6229 12.75 12.75C12.75 13.8772 13.1978 14.9582 13.9948 15.7552C14.7918 16.5523 15.8728 17 17 17C18.1272 17 19.2082 16.5523 20.0052 15.7552C20.8022 14.9582 21.25 13.8772 21.25 12.75C21.25 11.6229 20.8022 10.5419 20.0052 9.74484C19.2082 8.94781 18.1272 8.50004 17 8.50004Z" fill="#1F4590"/>
</svg>
