<svg width="74" height="71" viewBox="0 0 74 71" fill="none" xmlns="http://www.w3.org/2000/svg">
<ellipse cx="37" cy="35.5" rx="37" ry="35.5" fill="#1F4590"/>
<path fill-rule="evenodd" clip-rule="evenodd" d="M29.6667 26.8333C29.6667 24.8884 30.4393 23.0231 31.8146 21.6479C33.1898 20.2726 35.0551 19.5 37 19.5C38.9449 19.5 40.8102 20.2726 42.1854 21.6479C43.5607 23.0231 44.3333 24.8884 44.3333 26.8333C44.3333 28.7783 43.5607 30.6435 42.1854 32.0188C40.8102 33.3941 38.9449 34.1667 37 34.1667C35.0551 34.1667 33.1898 33.3941 31.8146 32.0188C30.4393 30.6435 29.6667 28.7783 29.6667 26.8333ZM29.6667 37.8333C27.2355 37.8333 24.9039 38.7991 23.1849 40.5182C21.4658 42.2373 20.5 44.5688 20.5 47C20.5 48.4587 21.0795 49.8576 22.1109 50.8891C23.1424 51.9205 24.5413 52.5 26 52.5H48C49.4587 52.5 50.8576 51.9205 51.8891 50.8891C52.9205 49.8576 53.5 48.4587 53.5 47C53.5 44.5688 52.5342 42.2373 50.8151 40.5182C49.0961 38.7991 46.7645 37.8333 44.3333 37.8333H29.6667Z" fill="white"/>
</svg>
