<svg width="34" height="34" viewBox="0 0 34 34" fill="none" xmlns="http://www.w3.org/2000/svg">
<path d="M25.5 22.3125H27.625V27.625H25.5V22.3125ZM21.25 17H23.375V27.625H21.25V17ZM11.6875 27.625C10.2791 27.6233 8.92878 27.0631 7.93286 26.0671C6.93694 25.0712 6.37669 23.7209 6.375 22.3125H8.5C8.5 22.9429 8.68694 23.5592 9.03719 24.0834C9.38744 24.6076 9.88526 25.0161 10.4677 25.2574C11.0501 25.4986 11.691 25.5617 12.3094 25.4388C12.9277 25.3158 13.4956 25.0122 13.9414 24.5664C14.3872 24.1206 14.6908 23.5527 14.8138 22.9344C14.9367 22.316 14.8736 21.6751 14.6324 21.0927C14.3911 20.5103 13.9826 20.0124 13.4584 19.6622C12.9342 19.3119 12.3179 19.125 11.6875 19.125V17C13.0965 17 14.4477 17.5597 15.444 18.556C16.4403 19.5523 17 20.9035 17 22.3125C17 23.7215 16.4403 25.0727 15.444 26.069C14.4477 27.0653 13.0965 27.625 11.6875 27.625Z" fill="#1F4590"/>
<path d="M29.75 2.125H4.25C3.68659 2.12556 3.14641 2.34963 2.74802 2.74802C2.34963 3.14641 2.12556 3.68659 2.125 4.25V29.75C2.12556 30.3134 2.34963 30.8536 2.74802 31.252C3.14641 31.6504 3.68659 31.8744 4.25 31.875H29.75C30.3133 31.8742 30.8533 31.65 31.2517 31.2517C31.65 30.8533 31.8742 30.3133 31.875 29.75V4.25C31.8744 3.68659 31.6504 3.14641 31.252 2.74802C30.8536 2.34963 30.3134 2.12556 29.75 2.125ZM29.75 11.6875H14.875V4.25H29.75V11.6875ZM12.75 4.25V11.6875H4.25V4.25H12.75ZM4.25 29.75V13.8125H29.75L29.7521 29.75H4.25Z" fill="#1F4590"/>
</svg>
