<svg width="34" height="34" viewBox="0 0 34 34" fill="none" xmlns="http://www.w3.org/2000/svg">
<path d="M6.375 31.875H19.125C19.6884 31.8744 20.2286 31.6504 20.627 31.252C21.0254 30.8536 21.2494 30.3134 21.25 29.75V26.5625H19.125V29.75H6.375V4.25H19.125V7.4375H21.25V4.25C21.2494 3.68659 21.0254 3.14641 20.627 2.74802C20.2286 2.34963 19.6884 2.12556 19.125 2.125H6.375C5.81159 2.12556 5.27141 2.34963 4.87302 2.74802C4.47463 3.14641 4.25056 3.68659 4.25 4.25V29.75C4.25056 30.3134 4.47463 30.8536 4.87302 31.252C5.27141 31.6504 5.81159 31.8744 6.375 31.875Z" fill="#1F4590"/>
<path d="M21.8726 21.8726L25.6828 18.0625H10.625V15.9375H25.6828L21.8726 12.1274L23.375 10.625L29.75 17L23.375 23.375L21.8726 21.8726Z" fill="#1F4590"/>
</svg>
