<svg width="80" height="80" viewBox="0 0 80 80" fill="none" xmlns="http://www.w3.org/2000/svg">
<path fill-rule="evenodd" clip-rule="evenodd" d="M54.5455 29.091C54.5455 32.9487 53.013 36.6484 50.2852 39.3762C47.5574 42.104 43.8577 43.6364 40 43.6364C36.1424 43.6364 32.4427 42.104 29.7149 39.3762C26.9871 36.6484 25.4546 32.9487 25.4546 29.091C25.4546 25.2333 26.9871 21.5336 29.7149 18.8058C32.4427 16.078 36.1424 14.5455 40 14.5455C43.8577 14.5455 47.5574 16.078 50.2852 18.8058C53.013 21.5336 54.5455 25.2333 54.5455 29.091ZM47.2728 29.091C47.2728 31.0198 46.5065 32.8697 45.1426 34.2336C43.7787 35.5975 41.9289 36.3637 40 36.3637C38.0712 36.3637 36.2214 35.5975 34.8575 34.2336C33.4936 32.8697 32.7273 31.0198 32.7273 29.091C32.7273 27.1621 33.4936 25.3123 34.8575 23.9484C36.2214 22.5845 38.0712 21.8183 40 21.8183C41.9289 21.8183 43.7787 22.5845 45.1426 23.9484C46.5065 25.3123 47.2728 27.1621 47.2728 29.091Z" fill="#1F4590"/>
<path fill-rule="evenodd" clip-rule="evenodd" d="M40 0C17.9091 0 0 17.9091 0 40C0 62.0909 17.9091 80 40 80C62.0909 80 80 62.0909 80 40C80 17.9091 62.0909 0 40 0ZM7.27273 40C7.27273 47.6 9.86545 54.5964 14.2109 60.1527C17.2627 56.1451 21.1996 52.8973 25.7143 50.663C30.229 48.4286 35.1991 47.2684 40.2364 47.2727C45.2085 47.268 50.1161 48.3983 54.5852 50.5774C59.0544 52.7565 62.9671 55.927 66.0255 59.8473C69.1762 55.7149 71.2976 50.8917 72.2142 45.7767C73.1307 40.6617 72.8161 35.4019 71.2963 30.4327C69.7766 25.4634 67.0953 20.9274 63.4745 17.2001C59.8536 13.4728 55.3973 10.6613 50.4741 8.99821C45.551 7.33512 40.3025 6.86826 35.1631 7.63627C30.0237 8.40427 25.1411 10.3851 20.9192 13.4147C16.6973 16.4444 13.2575 20.4359 10.8845 25.0589C8.51145 29.6819 7.27338 34.8035 7.27273 40ZM40 72.7273C32.4871 72.7386 25.201 70.154 19.3745 65.4109C21.7197 62.0536 24.8412 59.3124 28.4734 57.4207C32.1056 55.5289 36.141 54.5425 40.2364 54.5455C44.2806 54.5422 48.2672 55.5039 51.8652 57.3506C55.4632 59.1974 58.5686 61.8758 60.9236 65.1636C55.052 70.0607 47.6458 72.738 40 72.7273Z" fill="#1F4590"/>
</svg>
