<svg width="34" height="34" viewBox="0 0 34 34" fill="none" xmlns="http://www.w3.org/2000/svg">
<path d="M10.6803 30.6265C23.511 30.6265 30.5299 19.9951 30.5299 10.7917C30.5299 10.4942 30.5299 10.1925 30.5171 9.89497C31.8836 8.90576 33.063 7.68105 34 6.27822C32.7235 6.84103 31.3709 7.21196 29.9859 7.37897C31.4448 6.50695 32.5374 5.13491 33.0607 3.51785C31.6901 4.32986 30.1899 4.89989 28.6259 5.20297C27.5744 4.08315 26.183 3.3413 24.6672 3.09233C23.1514 2.84337 21.5958 3.10118 20.2413 3.82584C18.8869 4.5505 17.8092 5.70156 17.1752 7.10073C16.5412 8.49989 16.3863 10.0691 16.7344 11.5652C13.9607 11.4261 11.2472 10.7056 8.76997 9.4503C6.2927 8.19501 4.10695 6.43302 2.3545 4.2786C1.46485 5.81515 1.19334 7.6327 1.59512 9.36216C1.9969 11.0916 3.04184 12.6033 4.51775 13.5903C3.41177 13.5528 2.33011 13.2558 1.36 12.7233V12.819C1.36191 14.4286 1.91953 15.9882 2.93861 17.2342C3.95769 18.4802 5.37571 19.3361 6.953 19.6572C6.35431 19.8222 5.73586 19.9044 5.11488 19.9016C4.67709 19.9029 4.24018 19.8624 3.81012 19.7805C4.25592 21.1661 5.12396 22.3776 6.29265 23.2452C7.46134 24.1129 8.87216 24.5933 10.3275 24.6191C7.85518 26.5609 4.80123 27.6141 1.6575 27.609C1.10356 27.6113 0.549999 27.5794 0 27.5133C3.19072 29.5475 6.89626 30.6276 10.6803 30.6265Z" fill="#1F4590"/>
</svg>
