<svg width="239" height="229" viewBox="0 0 239 229" fill="none" xmlns="http://www.w3.org/2000/svg">
<path d="M193.423 130.834C190.405 130.834 187.511 131.983 185.377 134.029C183.244 136.074 182.045 138.848 182.045 141.741V145.886L165.206 129.743C159.26 124.088 151.224 120.915 142.848 120.915C134.473 120.915 126.437 124.088 120.491 129.743L112.527 137.378L84.3096 110.328C78.2807 104.826 70.2758 101.758 61.9522 101.758C53.6286 101.758 45.6237 104.826 39.5948 110.328L22.7556 126.471V65.3897C22.7556 62.4969 23.9544 59.7226 26.0881 57.6771C28.2219 55.6315 31.1158 54.4824 34.1334 54.4824H113.778C116.796 54.4824 119.69 53.3332 121.823 51.2877C123.957 49.2421 125.156 46.4678 125.156 43.575C125.156 40.6822 123.957 37.9079 121.823 35.8624C119.69 33.8168 116.796 32.6677 113.778 32.6677H34.1334C25.0807 32.6677 16.3987 36.1152 9.99745 42.2517C3.59619 48.3883 0 56.7113 0 65.3897V196.278C0 204.956 3.59619 213.279 9.99745 219.416C16.3987 225.553 25.0807 229 34.1334 229H170.667C179.72 229 188.402 225.553 194.803 219.416C201.204 213.279 204.801 204.956 204.801 196.278V141.741C204.801 138.848 203.602 136.074 201.468 134.029C199.334 131.983 196.44 130.834 193.423 130.834ZM34.1334 207.185C31.1158 207.185 28.2219 206.036 26.0881 203.991C23.9544 201.945 22.7556 199.171 22.7556 196.278V157.339L55.7513 125.707C57.4228 124.18 59.6432 123.329 61.9522 123.329C64.2611 123.329 66.4816 124.18 68.1531 125.707L104.221 160.284L153.145 207.185H34.1334ZM182.045 196.278C182.029 198.366 181.31 200.393 179.997 202.059L128.683 152.649L136.648 145.013C137.463 144.215 138.437 143.581 139.511 143.148C140.586 142.716 141.74 142.493 142.905 142.493C144.071 142.493 145.225 142.716 146.299 143.148C147.374 143.581 148.347 144.215 149.163 145.013L182.045 176.754V196.278ZM235.634 35.8308L201.501 3.10874C200.419 2.11573 199.143 1.33733 197.746 0.818199C194.976 -0.272733 191.869 -0.272733 189.099 0.818199C187.703 1.33733 186.427 2.11573 185.345 3.10874L151.211 35.8308C149.069 37.8847 147.865 40.6704 147.865 43.575C147.865 46.4797 149.069 49.2653 151.211 51.3192C153.354 53.3731 156.259 54.527 159.289 54.527C162.319 54.527 165.225 53.3731 167.368 51.3192L182.045 37.1397V98.1118C182.045 101.005 183.244 103.779 185.377 105.824C187.511 107.87 190.405 109.019 193.423 109.019C196.44 109.019 199.334 107.87 201.468 105.824C203.602 103.779 204.801 101.005 204.801 98.1118V37.1397L219.478 51.3192C220.536 52.3416 221.794 53.153 223.181 53.7068C224.567 54.2605 226.054 54.5456 227.556 54.5456C229.058 54.5456 230.545 54.2605 231.932 53.7068C233.318 53.153 234.577 52.3416 235.634 51.3192C236.701 50.3053 237.547 49.0989 238.125 47.7697C238.703 46.4406 239 45.0149 239 43.575C239 42.1351 238.703 40.7095 238.125 39.3803C237.547 38.0511 236.701 36.8448 235.634 35.8308Z" fill="#1F4590"/>
</svg>
