<svg width="216" height="192" viewBox="0 0 216 192" fill="none" xmlns="http://www.w3.org/2000/svg">
<path d="M188 24H162.42L150 5.34001C148.902 3.69476 147.415 2.34634 145.67 1.4147C143.926 0.483053 141.978 -0.00291844 140 1.31854e-05H76C74.0222 -0.00291844 72.0743 0.483053 70.3297 1.4147C68.585 2.34634 67.0977 3.69476 66 5.34001L53.57 24H28C20.5739 24 13.452 26.95 8.20101 32.201C2.94999 37.452 0 44.574 0 52V164C0 171.426 2.94999 178.548 8.20101 183.799C13.452 189.05 20.5739 192 28 192H188C191.677 192 195.318 191.276 198.715 189.869C202.112 188.462 205.199 186.399 207.799 183.799C210.399 181.199 212.461 178.112 213.869 174.715C215.276 171.318 216 167.677 216 164V52C216 48.323 215.276 44.682 213.869 41.2849C212.461 37.8878 210.399 34.8011 207.799 32.201C205.199 29.601 202.112 27.5385 198.715 26.1314C195.318 24.7243 191.677 24 188 24ZM192 164C192 165.061 191.579 166.078 190.828 166.828C190.078 167.579 189.061 168 188 168H28C26.9391 168 25.9217 167.579 25.1716 166.828C24.4214 166.078 24 165.061 24 164V52C24 50.9391 24.4214 49.9217 25.1716 49.1716C25.9217 48.4214 26.9391 48 28 48H60C61.9778 48.0029 63.9257 47.517 65.6703 46.5853C67.415 45.6537 68.9023 44.3053 70 42.66L82.42 24H133.57L146 42.66C147.098 44.3053 148.585 45.6537 150.33 46.5853C152.074 47.517 154.022 48.0029 156 48H188C189.061 48 190.078 48.4214 190.828 49.1716C191.579 49.9217 192 50.9391 192 52V164ZM108 56C98.5065 56 89.2262 58.8152 81.3326 64.0895C73.4391 69.3638 67.2868 76.8604 63.6538 85.6312C60.0208 94.4021 59.0702 104.053 60.9223 113.364C62.7744 122.675 67.346 131.228 74.0589 137.941C80.7718 144.654 89.3246 149.226 98.6357 151.078C107.947 152.93 117.598 151.979 126.369 148.346C135.14 144.713 142.636 138.561 147.911 130.667C153.185 122.774 156 113.494 156 104C155.987 91.2737 150.925 79.0724 141.927 70.0735C132.928 61.0746 120.726 56.0132 108 56ZM108 128C103.253 128 98.6131 126.592 94.6663 123.955C90.7195 121.318 87.6434 117.57 85.8269 113.184C84.0104 108.799 83.5351 103.973 84.4612 99.3178C85.3872 94.6623 87.673 90.3859 91.0294 87.0294C94.3859 83.673 98.6623 81.3872 103.318 80.4612C107.973 79.5351 112.799 80.0104 117.184 81.8269C121.57 83.6434 125.318 86.7196 127.955 90.6663C130.592 94.6131 132 99.2533 132 104C132 110.365 129.471 116.47 124.971 120.971C120.47 125.471 114.365 128 108 128Z" fill="#1F4590"/>
</svg>
