<svg width="26" height="26" viewBox="0 0 26 26" fill="none" xmlns="http://www.w3.org/2000/svg">
<path d="M13 2.26099C11.3043 2.26099 9.97962 2.88508 9.02582 4.13327C8.07201 5.38146 7.59511 6.97702 7.59511 8.91995C7.58333 11.3339 8.36051 13.2474 9.92663 14.6604C10.1268 14.8488 10.1975 15.0902 10.1386 15.3846L9.73234 16.2325C9.60281 16.5151 9.41146 16.7358 9.15829 16.8948C8.90512 17.0538 8.37228 17.2805 7.55978 17.5748C7.52446 17.5866 6.77966 17.828 5.32541 18.299C3.87115 18.77 3.09692 19.0291 3.00272 19.0762C2.01359 19.4883 1.36594 19.9181 1.05978 20.3656C0.730071 21.1075 0.565216 22.9856 0.565216 26.0001H25.4348C25.4348 22.9856 25.2699 21.1075 24.9402 20.3656C24.6341 19.9181 23.9864 19.4883 22.9973 19.0762C22.9031 19.0291 22.1289 18.77 20.6746 18.299C19.2203 17.828 18.4755 17.5866 18.4402 17.5748C17.6277 17.2805 17.0949 17.0538 16.8417 16.8948C16.5885 16.7358 16.3972 16.5151 16.2677 16.2325L15.8614 15.3846C15.8025 15.0902 15.8732 14.8488 16.0734 14.6604C17.6395 13.2474 18.4167 11.3339 18.4049 8.91995C18.4049 6.97702 17.928 5.38146 16.9742 4.13327C16.0204 2.88508 14.6957 2.26099 13 2.26099Z" fill="#1F4590"/>
</svg>
