<svg width="34" height="34" viewBox="0 0 34 34" fill="none" xmlns="http://www.w3.org/2000/svg">
<g clip-path="url(#clip0_8_37)">
<path d="M24.786 20.3756C24.3599 20.1599 22.2849 19.1473 21.8971 19.0028C21.5092 18.8647 21.2277 18.7924 20.9451 19.2185C20.6688 19.6339 19.8549 20.5849 19.6063 20.8622C19.3577 21.1395 19.1133 21.1607 18.6936 20.9727C18.2676 20.757 16.9065 20.3139 15.2904 18.8647C14.0282 17.7416 13.1877 16.3582 12.9381 15.9322C12.6894 15.5114 12.9104 15.2734 13.1208 15.0631C13.3142 14.8697 13.5469 14.5764 13.7626 14.3214C13.9676 14.0664 14.0335 13.8954 14.1833 13.6191C14.3214 13.3206 14.2502 13.0879 14.1451 12.8775C14.0399 12.6671 13.1931 10.5814 12.8392 9.75056C12.5014 8.92606 12.1476 9.03125 11.8872 9.03125C11.6439 9.00894 11.3613 9.00894 11.0798 9.00894C10.7982 9.00894 10.3381 9.11413 9.95031 9.51788C9.5625 9.94394 8.46706 10.9618 8.46706 13.0209C8.46706 15.0854 9.98325 17.0829 10.1936 17.3814C10.4093 17.6577 13.1761 21.9077 17.4207 23.7341C18.4333 24.1602 19.2196 24.4152 19.8337 24.6256C20.8463 24.9464 21.7706 24.9018 22.5006 24.7966C23.3081 24.6638 25.0017 23.7724 25.3566 22.7768C25.7167 21.7749 25.7167 20.9451 25.6116 20.757C25.5064 20.5636 25.2301 20.4584 24.8041 20.2704L24.786 20.3756ZM17.0882 30.8125H17.0659C14.5531 30.8125 12.0689 30.1314 9.89931 28.8586L9.39038 28.5547L4.07788 29.9381L5.50588 24.769L5.16269 24.2378C3.75962 22.0069 3.01527 19.425 3.01538 16.7896C3.01538 9.07587 9.32981 2.78375 17.0988 2.78375C20.8622 2.78375 24.3929 4.25 27.0491 6.90625C28.3595 8.201 29.3989 9.74374 30.1067 11.4445C30.8145 13.1452 31.1765 14.9698 31.1716 16.8119C31.161 24.5204 24.8519 30.8125 17.0935 30.8125H17.0882ZM29.0689 4.88644C25.8368 1.76481 21.5868 0 17.0659 0C7.74138 0 0.14875 7.55969 0.143438 16.8502C0.143438 19.8167 0.918 22.7109 2.40125 25.2726L0 34L8.976 31.6593C11.4626 32.9999 14.242 33.7051 17.0669 33.7121H17.0723C26.4021 33.7121 33.9947 26.1524 34 16.8555C34 12.3569 32.2458 8.12281 29.0477 4.94063L29.0689 4.88644Z" fill="#1F4590"/>
</g>
<defs>
<clipPath id="clip0_8_37">
<rect width="34" height="34" fill="white"/>
</clipPath>
</defs>
</svg>
